HIERARCHY
ROOT Hips
{
	OFFSET 0.00000 0.00000 0.00000
	CHANNELS 6 Xposition Yposition Zposition Zrotation Yrotation Xrotation 
	JOINT LHipJoint
	{
		OFFSET 0 0 0
		CHANNELS 3 Zrotation Yrotation Xrotation
		JOINT LeftHip
		{
			OFFSET 1.74857 -1.85566 0.69197
			CHANNELS 3 Zrotation Yrotation Xrotation
			JOINT LeftKnee
			{
				OFFSET 2.40003 -6.59403 0.00000
				CHANNELS 3 Zrotation Yrotation Xrotation
				JOINT LeftAnkle
				{
					OFFSET 2.82169 -7.75254 0.00000
					CHANNELS 3 Zrotation Yrotation Xrotation
					JOINT LeftToe
					{
						OFFSET 0.16466 -0.45240 2.26890
						CHANNELS 3 Zrotation Yrotation Xrotation
						End Site
						{
							OFFSET 0.00000 -0.00000 1.16486
						}
					}
				}
			}
		}
	}
	JOINT RHipJoint
	{
		OFFSET 0 0 0
		CHANNELS 3 Zrotation Yrotation Xrotation
		JOINT RightHip
		{
			OFFSET -1.64169 -1.85566 0.69197
			CHANNELS 3 Zrotation Yrotation Xrotation
			JOINT RightKnee
			{
				OFFSET -2.41814 -6.64379 0.00000
				CHANNELS 3 Zrotation Yrotation Xrotation
				JOINT RightAnkle
				{
					OFFSET -2.80588 -7.70911 0.00000
					CHANNELS 3 Zrotation Yrotation Xrotation
					JOINT RightToe
					{
						OFFSET -0.19098 -0.52472 2.25401
						CHANNELS 3 Zrotation Yrotation Xrotation
						End Site
						{
							OFFSET -0.00000 -0.00000 1.16333
						}
					}
				}
			}
		}
	}
	JOINT lowerback
	{
		OFFSET 0 0 0
		CHANNELS 3 Zrotation Yrotation Xrotation
		JOINT Chest
		{
			OFFSET -0.02828 2.14690 -0.11061
			CHANNELS 3 Zrotation Yrotation Xrotation
			JOINT Chest2
			{
				OFFSET -0.00167 2.15299 0.00759
				CHANNELS 3 Zrotation Yrotation Xrotation
				JOINT lowerneck
				{
					OFFSET 0 0 0
					CHANNELS 3 Zrotation Yrotation Xrotation
					JOINT Neck
					{
						OFFSET -0.09296 1.90118 0.07197
						CHANNELS 3 Zrotation Yrotation Xrotation
						JOINT Head
						{
							OFFSET 0.08490 1.89526 -0.24604
							CHANNELS 3 Zrotation Yrotation Xrotation
							End Site
							{
								OFFSET 0.03186 1.92109 -0.09483
							}
						}
					}
				}
				JOINT LeftCollar
				{
					OFFSET 0 0 0
					CHANNELS 3 Zrotation Yrotation Xrotation
					JOINT LeftShoulder
					{
						OFFSET 3.21569 1.44644 -0.03720
CHANNELS 3 Zrotation Xrotation Yrotation
						JOINT LeftElbow
						{
OFFSET 0 -5.476510 -0.000000
CHANNELS 3 Zrotation Xrotation Yrotation
							JOINT LeftWrist
							{
OFFSET 0 -3.090580 -0.000000
CHANNELS 3 Zrotation Xrotation Yrotation
								JOINT lhand
								{
									OFFSET 0 0 0
CHANNELS 3 Zrotation Xrotation Yrotation
									JOINT LFingers
									{
OFFSET 0 -0.771610 -0.000000
CHANNELS 3 Zrotation Xrotation Yrotation
										End Site
										{
OFFSET 0 -0.622090 -0.000000
										}
									}
								}
								JOINT LThumb
								{
OFFSET 0 0.000000 0.000000
CHANNELS 3 Zrotation Xrotation Yrotation
									End Site
									{
OFFSET 0 -0.631590 0.631590
									}
								}
							}
						}
					}
				}
				JOINT RightCollar
				{
					OFFSET 0 0 0
					CHANNELS 3 Zrotation Yrotation Xrotation
					JOINT RightShoulder
					{
						OFFSET -3.38693 1.28904 -0.07093
CHANNELS 3 Zrotation Xrotation Yrotation
						JOINT RightElbow
						{
OFFSET 0 -5.141820 -0.000000
CHANNELS 3 Zrotation Xrotation Yrotation
							JOINT RightWrist
							{
OFFSET 0 -3.355650 -0.000000
CHANNELS 3 Zrotation Xrotation Yrotation
								JOINT rhand
								{
									OFFSET 0 0 0
CHANNELS 3 Zrotation Xrotation Yrotation
									JOINT RFingers
									{
OFFSET 0 -0.801040 -0.000000
CHANNELS 3 Zrotation Xrotation Yrotation
										End Site
										{
OFFSET 0 -0.645820 -0.000000
										}
									}
								}
								JOINT RThumb
								{
OFFSET 0 0.000000 0.000000
CHANNELS 3 Zrotation Xrotation Yrotation
									End Site
									{
OFFSET 0 -0.655680 0.655680
									}
								}
							}
						}
					}
				}
			}
		}
	}
}
MOTION
Frames: 4
Frame Time: 0.008333333333333333
1.296998 17.082106 -1.156389 2.157129 -22.611717 -0.623556 0.000000 0.000000 0.000000 -24.927144 6.863889 -23.425145 6.121207 14.544726 45.466169 2.744661 4.339880 -33.056996 0.248547 -3.208120 -8.858716 0.000000 0.000000 0.000000 10.905184 18.051755 -22.445535 -6.029508 -14.456824 45.099970 -1.258749 0.816731 -20.963429 -0.961936 6.244971 -17.496868 -5.106347 -1.550620 11.141922 0.695727 -2.572838 7.622582 3.820445 -1.539546 2.006313 -6.445124 -5.026922 -0.626577 7.354885 -6.376659 -10.575547 3.715126 -3.214847 -2.854953 0.000000 0.000000 0.000000 159.932212 -66.446334 79.933051 67.058964 -57.913757 40.271750 30.097788 -31.838801 -18.517090 0.000000 0.000000 0.000000 -7.125000 0.000000 0.000000 1.989306 51.131805 -0.300620 0.000000 0.000000 0.000000 -133.507252 -57.914580 -54.648072 -66.988331 -57.900288 -40.211903 -54.050571 -83.980906 -34.782969 0.000000 0.000000 0.000000 7.125000 0.000000 0.000000 -10.856103 -19.067942 -14.006990
1.286630 17.052628 -1.149450 2.449440 -22.306728 -0.710360 0.000000 0.000000 0.000000 -25.158214 6.787785 -23.567309 6.205142 14.624266 45.799535 2.794861 3.843685 -33.123114 0.216865 -2.997468 -8.271657 0.000000 0.000000 0.000000 10.550381 17.973099 -22.784511 -6.201540 -14.620858 45.785185 -1.286163 0.724875 -21.221898 -0.965187 6.254941 -17.526017 -5.161613 -1.695005 11.457559 0.779324 -2.785250 7.585659 3.971215 -1.644537 1.827199 -6.453073 -5.081221 -0.283594 7.118758 -6.483818 -10.740245 3.656336 -3.264035 -2.973960 0.000000 0.000000 0.000000 162.437143 -62.401976 81.913660 62.148765 -56.855655 36.134742 29.932713 -34.312794 -18.452827 0.000000 0.000000 0.000000 -7.125000 0.000000 0.000000 1.830277 51.029565 -0.271976 0.000000 0.000000 0.000000 -138.150320 -55.403457 -59.210057 -62.307745 -56.893782 -36.267924 -53.447129 -84.790937 -34.697429 0.000000 0.000000 0.000000 7.125000 0.000000 0.000000 -10.586098 -18.612240 -13.597330
1.254626 17.021687 -1.149322 2.710836 -21.545730 -0.758821 0.000000 0.000000 0.000000 -25.279412 6.400216 -23.746803 6.330171 14.740836 46.292951 2.809128 3.449674 -33.037288 0.214195 -2.979341 -8.221335 0.000000 0.000000 0.000000 10.296365 17.731496 -23.012927 -6.323069 -14.734325 46.265033 -1.367711 0.327662 -22.018674 -1.033839 6.467114 -18.145976 -5.129659 -1.785496 11.569364 0.814988 -2.904785 7.687185 4.003054 -1.707869 1.887874 -6.321123 -5.149255 -0.197955 6.860012 -6.599544 -10.586668 3.540056 -3.318500 -2.939795 0.000000 0.000000 0.000000 165.035242 -60.395284 84.607124 59.551207 -56.189171 33.967851 29.337927 -34.659185 -18.872428 0.000000 0.000000 0.000000 -7.125000 0.000000 0.000000 1.155594 51.387968 -0.181802 0.000000 0.000000 0.000000 -140.274323 -54.012228 -61.980128 -59.560719 -56.191739 -33.975863 -53.503364 -84.648201 -35.360948 0.000000 0.000000 0.000000 7.125000 0.000000 0.000000 -10.371154 -19.368517 -13.397171
1.205334 17.004586 -1.153884 2.699928 -20.640692 -0.826025 0.000000 0.000000 0.000000 -25.034308 5.914315 -23.673141 6.435300 14.837286 46.704794 2.799680 3.209989 -32.885514 0.234497 -3.115483 -8.600588 0.000000 0.000000 0.000000 10.469640 17.252393 -23.095258 -6.509220 -14.904275 46.992773 -1.389750 0.189946 -22.241967 -0.873924 5.960022 -16.668385 -4.959048 -1.850812 11.732117 0.989029 -2.981081 7.798137 4.100402 -1.747474 1.926074 -6.406163 -5.149266 -0.126217 6.534406 -6.633602 -10.421612 3.440020 -3.321182 -2.901849 0.000000 0.000000 0.000000 165.666815 -59.994534 85.700889 59.254335 -56.107780 33.721369 29.306795 -34.525604 -18.266732 0.000000 0.000000 0.000000 -7.125000 0.000000 0.000000 1.222377 50.708411 -0.171904 0.000000 0.000000 0.000000 -140.674675 -53.921603 -62.936386 -59.663568 -56.219567 -34.061345 -53.021121 -83.136215 -34.999302 0.000000 0.000000 0.000000 7.125000 0.000000 0.000000 -10.263878 -18.690632 -13.181165
